<?xml version="1.0" standalone="no"?>
<!DOCTYPE svg PUBLIC "-//W3C//DTD SVG 20010904//EN"
 "http://www.w3.org/TR/2001/REC-SVG-20010904/DTD/svg10.dtd">
<svg version="1.0" xmlns="http://www.w3.org/2000/svg"
 width="32.000000pt" height="32.000000pt" viewBox="0 0 32.000000 32.000000"
 preserveAspectRatio="xMidYMid meet">

<g transform="translate(0.000000,32.000000) scale(0.100000,-0.100000)"
fill="#000000" stroke="none">
<path d="M12 308 c-17 -17 -17 -279 0 -296 17 -17 279 -17 296 0 17 17 17 279
0 296 -17 17 -279 17 -296 0z m118 -93 c12 -14 8 -15 -29 -9 -39 6 -43 5 -39
-12 2 -12 14 -21 32 -24 37 -6 55 -33 40 -57 -14 -23 -77 -29 -93 -9 -11 13
-7 15 31 13 32 -2 43 2 43 13 0 8 -11 17 -25 18 -14 2 -31 9 -37 14 -14 11
-18 50 -6 61 12 13 71 7 83 -8z m150 -5 c15 -28 13 -123 -2 -118 -8 3 -14 27
-16 62 -3 53 -5 57 -25 54 -19 -3 -23 -11 -27 -57 -8 -83 -30 -79 -30 6 l0 69
45 2 c35 1 47 -3 55 -18z"/>
</g>
</svg>
